<svg xmlns="http://www.w3.org/2000/svg" xmlns:xlink="http://www.w3.org/1999/xlink" width="500" zoomAndPan="magnify" viewBox="0 0 375 374.999991" height="500" preserveAspectRatio="xMidYMid meet" version="1.0"><defs><g/><clipPath id="c43553a3c3"><path d="M 134.277344 177 L 323 177 L 323 195 L 134.277344 195 Z M 134.277344 177 " clip-rule="nonzero"/></clipPath></defs><g clip-path="url(#c43553a3c3)"><path fill="#000000" d="M 135.519531 187.972656 C 135 188.78125 134.292969 188.144531 134.742188 187.4375 C 151.378906 161.453125 161.8125 196.703125 195.253906 193.746094 C 246.742188 189.1875 289.785156 174.644531 321.820312 187.167969 C 324.054688 188.039062 322.480469 189.871094 320.601562 189.015625 C 293.9375 176.898438 244.40625 189.585938 195.03125 194.726562 C 161.574219 198.210938 152.117188 162.414062 135.519531 187.972656 Z M 135.519531 187.972656 " fill-opacity="1" fill-rule="nonzero"/></g><g fill="#000000" fill-opacity="1"><g transform="translate(37.500002, 200.249987)"><g><path d="M 39.601562 19.441406 C 40.558594 21.660156 43.5 21.480469 43.199219 18.78125 C 42.539062 12.839844 46.800781 -3.960938 49.140625 -20.339844 L 49.199219 -20.339844 C 56.21875 -44.101562 64.738281 -55.199219 72.960938 -55.078125 C 88.199219 -54.839844 80.578125 -19.261719 56.941406 -16.140625 C 56.28125 -15.960938 56.460938 -15.421875 57 -15.421875 C 72.539062 -13.320312 56.941406 17.039062 71.28125 17.578125 C 77.640625 17.820312 88.738281 2.101562 98.878906 -14.160156 C 98.820312 -14.820312 98.039062 -14.578125 97.859375 -14.28125 C 89.699219 -1.621094 77.398438 16.441406 71.699219 16.441406 C 63.960938 16.441406 73.800781 -10.261719 59.101562 -15.78125 C 85.800781 -19.199219 92.039062 -56.398438 73.019531 -56.160156 C 62.941406 -56.039062 55.921875 -43.378906 50.101562 -27.898438 C 51.660156 -43.378906 50.339844 -56.699219 40.019531 -57.421875 C 28.679688 -58.199219 19.199219 -44.460938 19.261719 -30 C 4.441406 -36.359375 -4.199219 -24.179688 1.980469 -14.101562 L 3.539062 -14.101562 C -3.058594 -22.441406 3.539062 -35.398438 19.140625 -29.160156 C 19.378906 -15.480469 24.601562 -9.71875 29.160156 -10.320312 C 33.480469 -10.921875 36.71875 -21.359375 20.460938 -29.699219 C 20.039062 -42.539062 28.980469 -57.71875 40.019531 -56.460938 C 60.238281 -54.179688 35.160156 9.238281 39.601562 19.441406 Z M 29.519531 -11.160156 C 26.101562 -10.378906 21.121094 -13.378906 20.28125 -28.679688 C 34.738281 -20.941406 32.28125 -11.820312 29.519531 -11.160156 Z M 29.519531 -11.160156 "/></g></g></g><g fill="#000000" fill-opacity="1"><g transform="translate(158.171119, 217.664487)"><g><path d="M 6.34375 0 L 4.203125 -3.375 C 4.128906 -3.363281 4.023438 -3.359375 3.890625 -3.359375 L 2.546875 -3.359375 L 2.546875 0 L 1.3125 0 L 1.3125 -9.140625 L 3.75 -9.140625 C 4.375 -9.140625 4.929688 -9.03125 5.421875 -8.8125 C 5.910156 -8.59375 6.289062 -8.269531 6.5625 -7.84375 C 6.84375 -7.414062 6.984375 -6.90625 6.984375 -6.3125 C 6.984375 -5.738281 6.859375 -5.21875 6.609375 -4.75 C 6.367188 -4.28125 5.988281 -3.921875 5.46875 -3.671875 L 7.78125 0 Z M 3.875 -4.546875 C 4.53125 -4.546875 5 -4.71875 5.28125 -5.0625 C 5.570312 -5.414062 5.71875 -5.8125 5.71875 -6.25 C 5.71875 -6.519531 5.65625 -6.785156 5.53125 -7.046875 C 5.414062 -7.316406 5.222656 -7.535156 4.953125 -7.703125 C 4.691406 -7.878906 4.359375 -7.96875 3.953125 -7.96875 L 2.546875 -7.96875 L 2.546875 -4.546875 Z M 3.875 -4.546875 "/></g></g></g><g fill="#000000" fill-opacity="1"><g transform="translate(169.766274, 217.664487)"><g><path d="M 2.421875 -3.234375 C 2.421875 -2.828125 2.519531 -2.460938 2.71875 -2.140625 C 2.914062 -1.816406 3.175781 -1.5625 3.5 -1.375 C 3.832031 -1.1875 4.203125 -1.09375 4.609375 -1.09375 C 5.035156 -1.09375 5.414062 -1.179688 5.75 -1.359375 C 6.09375 -1.546875 6.359375 -1.800781 6.546875 -2.125 C 6.742188 -2.457031 6.84375 -2.828125 6.84375 -3.234375 L 6.84375 -9.140625 L 8.046875 -9.140625 L 8.046875 -3.203125 C 8.046875 -2.546875 7.894531 -1.96875 7.59375 -1.46875 C 7.289062 -0.96875 6.878906 -0.582031 6.359375 -0.3125 C 5.835938 -0.0390625 5.253906 0.09375 4.609375 0.09375 C 3.984375 0.09375 3.40625 -0.0390625 2.875 -0.3125 C 2.351562 -0.582031 1.941406 -0.96875 1.640625 -1.46875 C 1.347656 -1.96875 1.203125 -2.546875 1.203125 -3.203125 L 1.203125 -9.140625 L 2.421875 -9.140625 Z M 2.421875 -3.234375 "/></g></g></g><g fill="#000000" fill-opacity="1"><g transform="translate(182.27183, 217.664487)"><g><path d="M 8.484375 -0.78125 C 8.203125 -0.5625 7.765625 -0.359375 7.171875 -0.171875 C 6.578125 0.00390625 6.03125 0.09375 5.53125 0.09375 C 4.570312 0.09375 3.726562 -0.0976562 3 -0.484375 C 2.28125 -0.878906 1.722656 -1.414062 1.328125 -2.09375 C 0.941406 -2.78125 0.75 -3.550781 0.75 -4.40625 C 0.75 -5.394531 0.957031 -6.253906 1.375 -6.984375 C 1.800781 -7.710938 2.367188 -8.269531 3.078125 -8.65625 C 3.796875 -9.039062 4.582031 -9.234375 5.4375 -9.234375 C 5.945312 -9.234375 6.429688 -9.171875 6.890625 -9.046875 C 7.347656 -8.929688 7.753906 -8.773438 8.109375 -8.578125 L 7.703125 -7.453125 C 7.441406 -7.597656 7.101562 -7.726562 6.6875 -7.84375 C 6.28125 -7.957031 5.914062 -8.015625 5.59375 -8.015625 C 4.882812 -8.015625 4.253906 -7.867188 3.703125 -7.578125 C 3.160156 -7.296875 2.742188 -6.890625 2.453125 -6.359375 C 2.160156 -5.828125 2.015625 -5.207031 2.015625 -4.5 C 2.015625 -3.84375 2.160156 -3.253906 2.453125 -2.734375 C 2.742188 -2.222656 3.160156 -1.828125 3.703125 -1.546875 C 4.242188 -1.265625 4.859375 -1.125 5.546875 -1.125 C 5.867188 -1.125 6.179688 -1.15625 6.484375 -1.21875 C 6.785156 -1.28125 7.039062 -1.367188 7.25 -1.484375 L 7.25 -3.296875 L 5.421875 -3.296875 L 5.421875 -4.46875 L 8.484375 -4.46875 Z M 8.484375 -0.78125 "/></g></g></g><g fill="#000000" fill-opacity="1"><g transform="translate(195.030278, 217.664487)"><g><path d="M 8.5625 0 L 7.328125 0 L 7.328125 -4 L 2.546875 -4 L 2.546875 0 L 1.3125 0 L 1.3125 -9.140625 L 2.546875 -9.140625 L 2.546875 -5.1875 L 7.328125 -5.1875 L 7.328125 -9.140625 L 8.5625 -9.140625 Z M 8.5625 0 "/></g></g></g><g fill="#000000" fill-opacity="1"><g transform="translate(208.155417, 217.664487)"><g/></g></g><g fill="#000000" fill-opacity="1"><g transform="translate(215.400866, 217.664487)"><g><path d="M 1.3125 -9.140625 L 3.8125 -9.140625 C 4.957031 -9.140625 5.898438 -8.910156 6.640625 -8.453125 C 7.390625 -8.003906 7.929688 -7.425781 8.265625 -6.71875 C 8.609375 -6.007812 8.78125 -5.257812 8.78125 -4.46875 C 8.78125 -3.582031 8.570312 -2.796875 8.15625 -2.109375 C 7.75 -1.429688 7.195312 -0.910156 6.5 -0.546875 C 5.8125 -0.179688 5.066406 0 4.265625 0 L 1.3125 0 Z M 4.015625 -1.1875 C 4.691406 -1.1875 5.296875 -1.316406 5.828125 -1.578125 C 6.359375 -1.847656 6.769531 -2.234375 7.0625 -2.734375 C 7.363281 -3.242188 7.515625 -3.847656 7.515625 -4.546875 C 7.515625 -5.265625 7.359375 -5.878906 7.046875 -6.390625 C 6.734375 -6.910156 6.316406 -7.300781 5.796875 -7.5625 C 5.285156 -7.832031 4.734375 -7.96875 4.140625 -7.96875 L 2.546875 -7.96875 L 2.546875 -1.1875 Z M 4.015625 -1.1875 "/></g></g></g><g fill="#000000" fill-opacity="1"><g transform="translate(228.184602, 217.664487)"><g><path d="M 7.25 -9.140625 L 7.25 -7.96875 L 2.546875 -7.96875 L 2.546875 -5.1875 L 6.75 -5.1875 L 6.75 -4 L 2.546875 -4 L 2.546875 -1.1875 L 7.4375 -1.1875 L 7.4375 0 L 1.3125 0 L 1.3125 -9.140625 Z M 7.25 -9.140625 "/></g></g></g><g fill="#000000" fill-opacity="1"><g transform="translate(239.691247, 217.664487)"><g><path d="M 6.046875 -7.515625 C 5.710938 -7.691406 5.359375 -7.832031 4.984375 -7.9375 C 4.617188 -8.050781 4.269531 -8.109375 3.9375 -8.109375 C 3.445312 -8.109375 3.054688 -7.992188 2.765625 -7.765625 C 2.472656 -7.546875 2.328125 -7.238281 2.328125 -6.84375 C 2.328125 -6.46875 2.492188 -6.160156 2.828125 -5.921875 C 3.171875 -5.679688 3.660156 -5.441406 4.296875 -5.203125 C 4.765625 -5.035156 5.160156 -4.851562 5.484375 -4.65625 C 5.816406 -4.457031 6.085938 -4.179688 6.296875 -3.828125 C 6.515625 -3.484375 6.625 -3.039062 6.625 -2.5 C 6.625 -2.007812 6.5 -1.566406 6.25 -1.171875 C 6.007812 -0.773438 5.660156 -0.460938 5.203125 -0.234375 C 4.753906 -0.015625 4.226562 0.09375 3.625 0.09375 C 3.0625 0.09375 2.519531 0.00390625 2 -0.171875 C 1.476562 -0.347656 1.019531 -0.578125 0.625 -0.859375 L 1.15625 -1.828125 C 1.46875 -1.597656 1.84375 -1.398438 2.28125 -1.234375 C 2.71875 -1.066406 3.128906 -0.984375 3.515625 -0.984375 C 4.003906 -0.984375 4.429688 -1.109375 4.796875 -1.359375 C 5.160156 -1.617188 5.34375 -1.992188 5.34375 -2.484375 C 5.34375 -2.910156 5.1875 -3.25 4.875 -3.5 C 4.570312 -3.75 4.144531 -3.984375 3.59375 -4.203125 C 3.070312 -4.390625 2.640625 -4.578125 2.296875 -4.765625 C 1.960938 -4.953125 1.671875 -5.207031 1.421875 -5.53125 C 1.179688 -5.851562 1.0625 -6.257812 1.0625 -6.75 C 1.0625 -7.46875 1.3125 -8.046875 1.8125 -8.484375 C 2.3125 -8.929688 2.960938 -9.164062 3.765625 -9.1875 C 4.753906 -9.1875 5.671875 -8.941406 6.515625 -8.453125 Z M 6.046875 -7.515625 "/></g></g></g><g fill="#000000" fill-opacity="1"><g transform="translate(250.300125, 217.664487)"><g><path d="M 2.546875 -9.140625 L 2.546875 0 L 1.3125 0 L 1.3125 -9.140625 Z M 2.546875 -9.140625 "/></g></g></g><g fill="#000000" fill-opacity="1"><g transform="translate(257.406494, 217.664487)"><g><path d="M 8.484375 -0.78125 C 8.203125 -0.5625 7.765625 -0.359375 7.171875 -0.171875 C 6.578125 0.00390625 6.03125 0.09375 5.53125 0.09375 C 4.570312 0.09375 3.726562 -0.0976562 3 -0.484375 C 2.28125 -0.878906 1.722656 -1.414062 1.328125 -2.09375 C 0.941406 -2.78125 0.75 -3.550781 0.75 -4.40625 C 0.75 -5.394531 0.957031 -6.253906 1.375 -6.984375 C 1.800781 -7.710938 2.367188 -8.269531 3.078125 -8.65625 C 3.796875 -9.039062 4.582031 -9.234375 5.4375 -9.234375 C 5.945312 -9.234375 6.429688 -9.171875 6.890625 -9.046875 C 7.347656 -8.929688 7.753906 -8.773438 8.109375 -8.578125 L 7.703125 -7.453125 C 7.441406 -7.597656 7.101562 -7.726562 6.6875 -7.84375 C 6.28125 -7.957031 5.914062 -8.015625 5.59375 -8.015625 C 4.882812 -8.015625 4.253906 -7.867188 3.703125 -7.578125 C 3.160156 -7.296875 2.742188 -6.890625 2.453125 -6.359375 C 2.160156 -5.828125 2.015625 -5.207031 2.015625 -4.5 C 2.015625 -3.84375 2.160156 -3.253906 2.453125 -2.734375 C 2.742188 -2.222656 3.160156 -1.828125 3.703125 -1.546875 C 4.242188 -1.265625 4.859375 -1.125 5.546875 -1.125 C 5.867188 -1.125 6.179688 -1.15625 6.484375 -1.21875 C 6.785156 -1.28125 7.039062 -1.367188 7.25 -1.484375 L 7.25 -3.296875 L 5.421875 -3.296875 L 5.421875 -4.46875 L 8.484375 -4.46875 Z M 8.484375 -0.78125 "/></g></g></g><g fill="#000000" fill-opacity="1"><g transform="translate(270.164939, 217.664487)"><g><path d="M 9.28125 -9.140625 L 9.28125 0.296875 L 9.234375 0.296875 L 2.53125 -6.515625 L 2.546875 0 L 1.3125 0 L 1.3125 -9.421875 L 1.375 -9.421875 L 8.078125 -2.53125 L 8.046875 -9.140625 Z M 9.28125 -9.140625 "/></g></g></g></svg>